<?xml version="1.0" encoding="UTF-8"?>
<svg width="49px" height="63px" viewBox="0 0 49 63" version="1.1" xmlns="http://www.w3.org/2000/svg" xmlns:xlink="http://www.w3.org/1999/xlink">
    <!-- Generator: Sketch 46.2 (44496) - http://www.bohemiancoding.com/sketch -->
    <desc>Created with Sketch.</desc>
    <defs></defs>
    <g id="dashboard" stroke="none" stroke-width="1" fill="none" fill-rule="evenodd">
        <g id="Login" transform="translate(-356.000000, -461.000000)" fill-rule="nonzero" fill="#000000">
            <g id="ADMIN-LOGIN" transform="translate(235.000000, -9.000000)">
                <g id="Lock" transform="translate(121.000000, 470.000000)">
                    <g id="Lock-round-2">
                        <g id="Page-1">
                            <g id="Icons">
                                <path d="M10.5354167,16.15 C11.1541667,16.15 11.6583333,15.65 11.6583333,15.03125 C11.6583333,7.975 17.3875,2.24166667 24.43125,2.24166667 C31.4935128,2.24626038 37.2181059,7.96898909 37.225,15.03125 C37.225,15.6502692 37.7268142,16.1520833 38.3458333,16.1520833 C38.9648525,16.1520833 39.4666667,15.6502692 39.4666667,15.03125 C39.4666667,6.74166667 32.725,0 24.43125,0 C16.1541667,0 9.41666667,6.74166667 9.41666667,15.03125 C9.41666667,15.6479167 9.91666667,16.15 10.5354167,16.15 Z M24.4354167,60.45625 C12.225,60.45625 2.29166667,50.51875 2.29166667,38.3041667 C2.30224031,31.0269952 5.88400769,24.2185226 11.875,20.0875 C19.325,14.9354167 29.5583333,14.93125 37.0083333,20.0916667 L37.0166667,20.0916667 C43.0008034,24.2259102 46.5783977,31.0308121 46.5916667,38.3041667 C46.5916667,50.5208333 36.65,60.45625 24.4354167,60.45625 L24.4354167,60.45625 Z M38.2895833,18.2520833 L38.28125,18.2520833 C30.0770833,12.5708333 18.79375,12.5666667 10.5958333,18.2395833 L10.5916667,18.2479167 C3.99889373,22.7981182 0.0584420986,30.2936187 0.0479166667,38.3041667 C0.0479166667,51.7520833 10.9895833,62.6979167 24.4333333,62.6979167 C37.8854167,62.6979167 48.83125,51.7520833 48.83125,38.3041667 C48.8201889,30.2953902 44.8806314,22.8016667 38.2895833,18.2520833 L38.2895833,18.2520833 Z M26.8166667,36.6083333 C26.4699838,36.8079922 26.2557093,37.1770205 26.2541667,37.5770833 L26.2541667,47.0375 C26.253016,48.0385161 25.4405994,48.8490672 24.4395833,48.8479166 C23.4385673,48.846766 22.6280161,48.0343494 22.6291667,47.0333333 L22.6291667,37.5770833 C22.6271984,37.1771361 22.4130381,36.8083045 22.0666667,36.6083333 C20.5938082,35.771952 19.684293,34.2083497 19.6854167,32.5145833 C19.6854167,31.2208333 20.21875,30.0041667 21.1833333,29.0875 C22.0875,28.2291667 23.2458333,27.75625 24.4458333,27.75625 C25.6416667,27.75625 26.79375,28.2291667 27.6979167,29.0875 C28.6625,30.0020833 29.1958333,31.21875 29.1958333,32.5145833 C29.1965099,34.2076811 28.2880862,35.7707744 26.8166667,36.6083333 L26.8166667,36.6083333 Z M19.6416667,27.4604167 C18.2412992,28.7684757 17.4455484,30.5983254 17.44375,32.5145833 C17.4536153,34.7689181 18.5485834,36.8805316 20.3854167,38.1875 L20.3854167,47.0333333 C20.3866482,48.6756693 21.3780971,50.1551887 22.8966257,50.7807604 C24.4151542,51.4063321 26.1610504,51.054487 27.31875,49.8895833 C28.0833333,49.125 28.4979167,48.1083333 28.49375,47.0333333 L28.49375,38.1875 C30.3305833,36.8805316 31.4255514,34.7689181 31.4354167,32.5145833 C31.4354167,30.6020833 30.6541667,28.8083333 29.2416667,27.4645833 C26.6083333,24.95 22.2791667,24.9541667 19.6416667,27.4604167 L19.6416667,27.4604167 Z" id="Lock-round-2"></path>
                            </g>
                        </g>
                    </g>
                </g>
            </g>
        </g>
    </g>
</svg>