<?xml version="1.0" encoding="UTF-8"?>
<svg width="49px" height="49px" viewBox="0 0 49 49" version="1.1" xmlns="http://www.w3.org/2000/svg" xmlns:xlink="http://www.w3.org/1999/xlink">
    <!-- Generator: Sketch 46.2 (44496) - http://www.bohemiancoding.com/sketch -->
    <desc>Created with Sketch.</desc>
    <defs></defs>
    <g id="dashboard" stroke="none" stroke-width="1" fill="none" fill-rule="evenodd">
        <g id="Login" transform="translate(-355.000000, -342.000000)" fill-rule="nonzero" fill="#231F20">
            <g id="ADMIN-LOGIN" transform="translate(235.000000, -9.000000)">
                <g id="User" transform="translate(120.000000, 351.000000)">
                    <g id="Layer_1">
                        <path d="M24.1535714,0 C10.8357143,0 0,10.8357143 0,24.1535714 C0,30.6071429 2.51071429,36.6714286 7.07142857,41.2321429 C11.6357143,45.7964286 17.7,48.3071429 24.1535714,48.3071429 C37.4714286,48.3071429 48.3071429,37.4714286 48.3071429,24.1535714 C48.3071429,10.8357143 37.4714286,0 24.1535714,0 Z M9.55357143,41.075 C12.9321429,36.6857143 18.1357143,34.0535714 23.6892857,33.9714286 C23.775,33.975 23.8571429,33.9964286 23.9428571,33.9964286 L24.025,33.9964286 C24.1035714,33.9964286 24.175,33.975 24.2535714,33.9714286 C29.8964286,34.0642857 35.1357143,36.7714286 38.5107143,41.2785714 C34.625,44.5464286 29.6178571,46.5214286 24.1535714,46.5214286 C18.7321429,46.5214286 13.6142857,44.5892857 9.55357143,41.075 L9.55357143,41.075 Z M23.9535714,32.1678571 C23.8642857,32.1678571 23.7785714,32.1821429 23.6892857,32.1857143 C19.4,32.0464286 15.95,28.5357143 15.95,24.1321429 C15.95,19.725 19.5357143,16.1392857 24.0285714,16.1392857 C28.4357143,16.1392857 32.0214286,19.725 32.0214286,24.2178571 C32.0214286,28.5464286 28.5571429,32.0642857 24.2571429,32.1892857 C24.1571429,32.1857143 24.0571429,32.1678571 23.9535714,32.1678571 Z M39.8357143,40.0785714 C37.0357143,36.4071429 33.1142857,33.8285714 28.7071429,32.75 C31.7285714,31.0785714 33.8071429,27.8821429 33.8071429,24.1357143 C33.8071429,18.7428571 29.4178571,14.3571429 23.9428571,14.3571429 C18.55,14.3571429 14.1642857,18.7464286 14.1642857,24.2214286 C14.1642857,27.9 16.2321429,31.0714286 19.2428571,32.7428571 C14.9107143,33.7964286 11.0321429,36.3035714 8.23928571,39.8678571 C4.08214286,35.6571429 1.78928571,30.0857143 1.78928571,24.1607143 C1.78928571,11.825 11.825,1.79285714 24.1571429,1.79285714 C36.4892857,1.79285714 46.525,11.8285714 46.525,24.1607143 C46.5214286,30.3821429 43.9571429,36.0178571 39.8357143,40.0785714 Z" id="path7"></path>
                    </g>
                </g>
            </g>
        </g>
    </g>
</svg>